<?xml version="1.0" encoding="UTF-8" standalone="no"?>
<!-- Created with Inkscape (http://www.inkscape.org/) -->

<svg
   width="200"
   height="200"
   version="1.1"
   viewBox="0 0 52.914754 52.917541"
   id="svg5"
   sodipodi:docname="placeholder.svg"
   inkscape:version="1.2.1 (9c6d41e410, 2022-07-14)"
   xmlns:inkscape="http://www.inkscape.org/namespaces/inkscape"
   xmlns:sodipodi="http://sodipodi.sourceforge.net/DTD/sodipodi-0.dtd"
   xmlns="http://www.w3.org/2000/svg"
   xmlns:svg="http://www.w3.org/2000/svg">
  <defs
     id="defs9" />
  <sodipodi:namedview
     id="namedview7"
     pagecolor="#505050"
     bordercolor="#eeeeee"
     borderopacity="1"
     inkscape:showpageshadow="0"
     inkscape:pageopacity="0"
     inkscape:pagecheckerboard="0"
     inkscape:deskcolor="#505050"
     showgrid="false"
     inkscape:zoom="2.9297236"
     inkscape:cx="19.626425"
     inkscape:cy="79.871016"
     inkscape:window-width="1920"
     inkscape:window-height="1147"
     inkscape:window-x="-8"
     inkscape:window-y="-8"
     inkscape:window-maximized="1"
     inkscape:current-layer="svg5" />
  <path
     id="path815"
     style="fill:none;stroke:#020202;stroke-width:0.793763;stroke-dasharray:none;stroke-opacity:1"
     d="m 22.582573,45.324167 -3.882272,-5.156312 0.01561,-5.142524 0.01561,-5.142524 1.868243,-1.521945 c 1.148694,-0.935773 1.966575,-1.462663 2.123553,-1.368022 0.14042,0.08466 0.983148,0.761038 1.872728,1.503064 l 1.617418,1.349138 v 5.288535 c 0,3.386561 0.07506,5.288536 0.208699,5.288536 0.133779,0 0.2087,-1.946833 0.2087,-5.423106 v -5.423106 l -3.959527,-3.290084 -3.959526,-3.290082 -0.0058,-5.131676 -0.0058,-5.131677 3.874582,-5.162201 3.874582,-5.1622005 3.847287,5.125834 3.847286,5.1258335 v 5.198019 5.198018 l -1.773402,1.43092 c -0.975371,0.787004 -1.87032,1.430918 -1.988775,1.430918 -0.118455,0 -1.010887,-0.651395 -1.983183,-1.447547 l -1.767809,-1.44755 v -5.282999 c 0,-3.382867 -0.07506,-5.282999 -0.2087,-5.282999 -0.133778,0 -0.208699,1.946662 -0.208699,5.422587 v 5.422586 l 3.965284,3.285634 3.965284,3.285634 v 5.204657 5.20466 l -3.67968,4.922221 c -2.023824,2.707219 -3.751643,5.001835 -3.839597,5.099145 -0.08795,0.09731 -1.906939,-2.143412 -4.042188,-4.979385 z m 0,0 -3.882272,-5.156312 0.01561,-5.142524 0.01561,-5.142524 1.868243,-1.521945 c 1.148694,-0.935773 1.966575,-1.462663 2.123553,-1.368022 0.14042,0.08466 0.983148,0.761038 1.872728,1.503064 l 1.617418,1.349138 v 5.288535 c 0,3.386561 0.07506,5.288536 0.208699,5.288536 0.133779,0 0.208699,-1.946833 0.208699,-5.423106 v -5.423106 l -3.959526,-3.290084 -3.959526,-3.290082 -0.0058,-5.131676 -0.0058,-5.131677 3.874582,-5.162201 3.874582,-5.1622005 3.847287,5.125834 3.847286,5.1258335 v 5.198019 5.198018 l -1.773402,1.43092 c -0.975371,0.787004 -1.87032,1.430918 -1.988775,1.430918 -0.118455,0 -1.010887,-0.651395 -1.983183,-1.447547 l -1.767809,-1.44755 v -5.282999 c 0,-3.382867 -0.07506,-5.282999 -0.2087,-5.282999 -0.133778,0 -0.208699,1.946662 -0.208699,5.422587 v 5.422586 l 3.965284,3.285634 3.965284,3.285634 v 5.204657 5.20466 l -3.67968,4.922221 c -2.023824,2.707219 -3.751643,5.001835 -3.839597,5.099145 -0.08795,0.09731 -1.906939,-2.143412 -4.042188,-4.979385 z m 0,0 -3.882272,-5.156312 0.01561,-5.142524 0.01561,-5.142524 1.868243,-1.521945 c 1.148694,-0.935773 1.966575,-1.462663 2.123553,-1.368022 0.14042,0.08466 0.983148,0.761038 1.872728,1.503064 l 1.617418,1.349138 v 5.288535 c 0,3.386561 0.07506,5.288536 0.208699,5.288536 0.133779,0 0.208699,-1.946833 0.208699,-5.423106 v -5.423106 l -3.959526,-3.290084 -3.959526,-3.290082 -0.0058,-5.131676 -0.0058,-5.131677 3.874582,-5.162201 3.874582,-5.1622005 3.847287,5.125834 3.847286,5.1258335 v 5.198019 5.198018 l -1.773402,1.43092 c -0.975371,0.787004 -1.87032,1.430918 -1.988775,1.430918 -0.118455,0 -1.010887,-0.651395 -1.983183,-1.447547 l -1.767809,-1.44755 v -5.282999 c 0,-3.382867 -0.07506,-5.282999 -0.2087,-5.282999 -0.133778,0 -0.208699,1.946662 -0.208699,5.422587 v 5.422586 l 3.965284,3.285634 3.965284,3.285634 v 5.204657 5.20466 l -3.67968,4.922221 c -2.023824,2.707219 -3.751643,5.001835 -3.839597,5.099145 -0.08795,0.09731 -1.906939,-2.143412 -4.042188,-4.979385 z m 0,0 -3.882272,-5.156312 0.01561,-5.142524 0.01561,-5.142524 1.868243,-1.521945 c 1.148694,-0.935773 1.966575,-1.462663 2.123553,-1.368022 0.14042,0.08466 0.983148,0.761038 1.872728,1.503064 l 1.617418,1.349138 v 5.288535 c 0,3.386561 0.07506,5.288536 0.208699,5.288536 0.133779,0 0.208699,-1.946833 0.208699,-5.423106 v -5.423106 l -3.959526,-3.290084 -3.959526,-3.290082 -0.0058,-5.131676 -0.0058,-5.131677 3.874582,-5.162201 3.874582,-5.1622005 3.847287,5.125834 3.847286,5.1258335 v 5.198019 5.198018 l -1.773402,1.43092 c -0.975371,0.787004 -1.87032,1.430918 -1.988775,1.430918 -0.118455,0 -1.010887,-0.651395 -1.983183,-1.447547 l -1.767809,-1.44755 v -5.282999 c 0,-3.382867 -0.07506,-5.282999 -0.2087,-5.282999 -0.133778,0 -0.208699,1.946662 -0.208699,5.422587 v 5.422586 l 3.965284,3.285634 3.965284,3.285634 v 5.204657 5.20466 l -3.67968,4.922221 c -2.023824,2.707219 -3.751643,5.001835 -3.839597,5.099145 -0.08795,0.09731 -1.906939,-2.143412 -4.042188,-4.979385 z m 0,0 -3.882272,-5.156312 0.01561,-5.142524 0.01561,-5.142524 1.868243,-1.521945 c 1.148694,-0.935773 1.966575,-1.462663 2.123553,-1.368022 0.14042,0.08466 0.983148,0.761038 1.872728,1.503064 l 1.617418,1.349138 v 5.288535 c 0,3.386561 0.07506,5.288536 0.208699,5.288536 0.133779,0 0.208699,-1.946833 0.208699,-5.423106 v -5.423106 l -3.959526,-3.290084 -3.959526,-3.290082 -0.0058,-5.131676 -0.0058,-5.131677 3.874582,-5.162201 3.874582,-5.1622005 3.847287,5.125834 3.847286,5.1258335 v 5.198019 5.198018 l -1.773402,1.43092 c -0.975371,0.787004 -1.87032,1.430918 -1.988775,1.430918 -0.118455,0 -1.010887,-0.651395 -1.983183,-1.447547 l -1.767809,-1.44755 v -5.282999 c 0,-3.382867 -0.07506,-5.282999 -0.2087,-5.282999 -0.133778,0 -0.208699,1.946662 -0.208699,5.422587 v 5.422586 l 3.965284,3.285634 3.965284,3.285634 v 5.204657 5.20466 l -3.67968,4.922221 c -2.023824,2.707219 -3.751643,5.001835 -3.839597,5.099145 -0.08795,0.09731 -1.906939,-2.143412 -4.042188,-4.979385 z m 3.874304,-32.724396 v 10.574 l 7.938,6.609001 v 10.574999 l -7.938,10.573999 -7.9371,-10.573999 V 29.782772 l 4.0165,-3.304501 m 3.9216,13.8395 V 29.743772 l -7.938,-6.609001 v -10.575 l 7.938,-10.574 7.9371,10.574 v 10.575 l -4.0165,3.3045" />
  <path
     style="fill:#ffffff;fill-opacity:1;stroke:#020202;stroke-width:0.270935;stroke-dasharray:none;stroke-opacity:1;paint-order:markers fill stroke"
     d="M 25.355488,48.265614 C 24.709513,47.45683 23.057413,45.30402 21.684156,43.48159 l -2.496832,-3.313508 v -4.962359 -4.962358 l 1.398888,-1.115007 c 0.769387,-0.613253 1.551711,-1.205243 1.738496,-1.315531 l 0.339609,-0.200525 1.544546,1.265621 1.544547,1.265624 0.05669,4.939093 c 0.05595,4.874372 0.102069,5.653599 0.343667,5.806668 0.233391,0.14787 0.523342,0.0836 0.676348,-0.149918 0.200274,-0.305657 0.292476,-2.629417 0.299429,-7.546552 l 0.0052,-3.667995 -3.968726,-3.285989 -3.968727,-3.285991 -0.005,-4.967457 -0.005,-4.967457 3.653081,-4.8595595 3.65308,-4.8595596 3.616995,4.8223314 3.616995,4.8223307 v 5.018577 5.018577 l -1.106316,0.89532 c -0.608474,0.492426 -1.346039,1.071043 -1.639036,1.285817 -0.64198,0.470587 -0.436683,0.557761 -2.407918,-1.02246 l -1.411941,-1.131868 -0.05938,-4.858961 c -0.03266,-2.672428 -0.09439,-5.058744 -0.137188,-5.302923 -0.117364,-0.669685 -0.581625,-0.911241 -0.879022,-0.457357 -0.207589,0.316821 -0.298994,2.615393 -0.296213,7.448902 l 0.0022,3.838239 3.944826,3.256728 3.944826,3.256727 0.02086,5.051932 0.02085,5.051926 -3.516474,4.694882 c -1.934062,2.582185 -3.55272,4.706962 -3.59702,4.721729 -0.0443,0.01476 -0.609071,-0.634884 -1.255047,-1.443665 z"
     id="path2745" />
</svg>
